<svg width="30" height="30" viewBox="0 0 30 30" fill="none" xmlns="http://www.w3.org/2000/svg">
    <path d="M14.2188 11.0933V15.9015L17.3441 18.9066" stroke="#B0B0B0" stroke-width="2" stroke-linecap="round"
          stroke-linejoin="round"/>
    <path d="M5.78983 8.8339L4.88831 8.83843C4.89079 9.3328 5.29093 9.73294 5.7853 9.73542L5.78983 8.8339ZM8.84518 9.7508C9.34309 9.75331 9.74874 9.35171 9.75124 8.8538C9.75374 8.3559 9.35215 7.95025 8.85425 7.94775L8.84518 9.7508ZM6.67598 5.76948C6.67348 5.27158 6.26783 4.86999 5.76993 4.87249C5.27202 4.87499 4.87043 5.28064 4.87293 5.77855L6.67598 5.76948ZM5.1754 13.5392C5.24302 13.0459 4.89793 12.5912 4.40464 12.5236C3.91135 12.456 3.45664 12.801 3.38902 13.2943L5.1754 13.5392ZM23.249 6.75104C18.6569 2.15897 11.2363 2.11247 6.6746 6.67416L7.94957 7.94913C11.7951 4.10363 18.074 4.12598 21.9741 8.02601L23.249 6.75104ZM6.75149 23.2485C11.3436 27.8406 18.7643 27.8871 23.3259 23.3254L22.0509 22.0504C18.2054 25.8959 11.9265 25.8737 8.02645 21.9736L6.75149 23.2485ZM23.3259 23.3254C27.8876 18.7638 27.8411 11.3431 23.249 6.75104L21.9741 8.02601C25.8742 11.926 25.8964 18.2049 22.0509 22.0504L23.3259 23.3254ZM6.6746 6.67416L5.15235 8.19641L6.42732 9.47138L7.94957 7.94913L6.6746 6.67416ZM5.7853 9.73542L8.84518 9.7508L8.85425 7.94775L5.79436 7.93237L5.7853 9.73542ZM6.69136 8.82937L6.67598 5.76948L4.87293 5.77855L4.88831 8.83843L6.69136 8.82937ZM3.38902 13.2943C2.90648 16.8148 4.03022 20.5273 6.75149 23.2485L8.02645 21.9736C5.71782 19.665 4.76673 16.5206 5.1754 13.5392L3.38902 13.2943Z"
          fill="#B0B0B0"/>
</svg>
