<svg width="30" height="30" viewBox="0 0 30 30" fill="none" xmlns="http://www.w3.org/2000/svg">
    <path d="M3.28125 15.2389C3.28125 12.5572 3.28125 11.2163 3.88969 10.1048C4.49812 8.99321 5.60971 8.30333 7.83285 6.92359L10.1766 5.46899C12.5266 4.0105 13.7017 3.28125 15 3.28125C16.2983 3.28125 17.4734 4.0105 19.8234 5.46899L22.1672 6.92358C24.3904 8.30333 25.5019 8.99321 26.1103 10.1048C26.7187 11.2163 26.7188 12.5572 26.7188 15.2389V17.0215C26.7188 21.5927 26.7188 23.8785 25.3458 25.2986C23.9729 26.7187 21.7631 26.7188 17.3438 26.7188H12.6562C8.23683 26.7188 6.02713 26.7187 4.65418 25.2986C3.28125 23.8785 3.28125 21.5927 3.28125 17.0215V15.2389Z"
          stroke="#B0B0B0" stroke-width="2"/>
    <path d="M18.5156 22.0312H11.4844" stroke="#B0B0B0" stroke-width="2" stroke-linecap="round"/>
</svg>
