<svg width="30" height="30" viewBox="0 0 32 32" fill="none" xmlns="http://www.w3.org/2000/svg">
<path d="M25.1624 31C24.5238 31 24.0059 30.4833 24.0059 29.8462C24.0059 29.209 24.5238 28.6923 25.1624 28.6923C25.8013 28.6923 26.3189 29.209 26.3189 29.8462C26.3189 30.4833 25.8013 31 25.1624 31Z" stroke="#F15A24" stroke-width="2" stroke-linecap="round" stroke-linejoin="round"/>
<path d="M10.1275 31C9.48875 31 8.97095 30.4833 8.97095 29.8462C8.97095 29.209 9.48875 28.6923 10.1275 28.6923C10.7662 28.6923 11.284 29.209 11.284 29.8462C11.284 30.4833 10.7662 31 10.1275 31Z" stroke="#F15A24" stroke-width="2" stroke-linecap="round" stroke-linejoin="round"/>
<path d="M22.0593 14.8461H15.1201" stroke="#F15A24" stroke-width="2" stroke-linecap="round" stroke-linejoin="round"/>
<path d="M18.5896 11.3846V18.3077" stroke="#F15A24" stroke-width="2" stroke-linecap="round" stroke-linejoin="round"/>
<path d="M1 1H6.78269L7.39139 6.76923M7.39139 6.76923L8.87778 20.8569C9.00169 22.0314 9.99439 22.9231 11.1781 22.9231H25.7943C26.8558 22.9231 27.781 22.2024 28.0385 21.1751L30.9298 9.63662C31.2948 8.18012 30.1905 6.76923 28.6857 6.76923H7.39139Z" stroke="#17A049" stroke-width="2" stroke-linecap="round" stroke-linejoin="round"/>
</svg>
